<?xml version="1.0" encoding="utf-8"?>
<!DOCTYPE svg PUBLIC "-//W3C//DTD SVG 20010904//EN" "http://www.w3.org/TR/2001/REC-SVG-20010904/DTD/svg10.dtd">
<svg version="1.0" xmlns="http://www.w3.org/2000/svg" width="1072px" height="60px" viewBox="0 0 1072 60" preserveAspectRatio="xMidYMid meet">
 <g fill="#010001">
  <path d="M0 30 l0 -30 536 0 536 0 0 30 0 30 -536 0 -536 0 0 -30z m593 0.5 l0 -22.5 -59.5 0 -59.5 0 0 22.5 0 22.5 59.5 0 59.5 0 0 -22.5z m114 17.5 c1.2 -3.6 1.7 -4 4.5 -4 2.8 0 3.3 0.4 4.5 4 1.6 4.7 3 4.7 4.6 -0.1 3.7 -11.3 4.3 -13.4 3.9 -13.8 -0.3 -0.2 -0.9 0.8 -1.4 2.3 -0.9 2.1 -1.7 2.6 -4.6 2.6 -2.9 0 -3.6 -0.4 -4.1 -2.5 -0.4 -1.6 -1.3 -2.5 -2.5 -2.5 -1.2 0 -2.3 1 -2.9 2.5 -0.8 2 -1.6 2.5 -4.4 2.5 -2.8 0 -3.5 -0.4 -4 -2.5 -0.4 -1.4 -1.1 -2.5 -1.7 -2.5 -0.7 0 -0.8 0.7 -0.4 1.8 0.4 0.9 1.5 4.4 2.5 7.8 2.7 9.8 3.9 10.7 6 4.4z m56 1 c0 -2.7 0.3 -3 3 -3 1.8 0 4.7 1.2 7.2 3 3.8 2.8 4.8 3 12.3 3 6.7 0 8.7 -0.4 10.6 -1.9 l2.4 -2 -2.2 -2.3 -2.3 -2.2 0 3.2 0 3.2 -9 0 -9 0 0 -3 0 -3 -6.5 0 -6.5 0 0 -4.4 0 -4.5 4.8 -0.4 c4.2 -0.3 4.1 -0.4 -1.5 -0.5 l-6.3 -0.2 0 9 c0 7.3 0.3 9 1.5 9 1 0 1.5 -1 1.5 -3z m-28.4 0 c1 0 1.4 -1.2 1.4 -3.7 0 -6.9 0.9 -8.3 4.6 -8.3 2.7 0 3.7 0.5 4.4 2.3 1.2 3 1.2 0.5 0 -2.8 -0.9 -2.3 -1.5 -2.6 -4.7 -2.3 -3.6 0.3 -3.7 0.4 -5.4 6.8 -0.9 3.6 -1.9 7.2 -2.1 8 -0.3 0.8 -0.3 1.2 -0.1 0.8 0.3 -0.5 1.1 -0.8 1.9 -0.8z m13 -3.2 l-1.1 -4.2 -0.5 3.4 c-0.4 2.5 -0.1 3.7 1 4.2 0.8 0.4 1.5 0.7 1.6 0.7 0.1 0.1 -0.4 -1.8 -1 -4.1z m52.5 -9.8 c3.3 0 5.9 -0.4 5.9 -1 0 -1.3 -9 -1.3 -12.3 -0.1 -3.3 1.3 -3.9 3.4 -1.9 6.2 l1.7 2.4 0.3 -3.7 0.3 -3.8 6 0z m-22.9 1.8 c-0.9 -0.9 -1.2 -0.7 -1.2 1.2 0 1.9 0.3 2.1 1.2 1.2 0.9 -0.9 0.9 -1.5 0 -2.4z m-60.8 -11.9 c3.5 -1.6 3.9 -3.6 1.6 -6.9 -1.1 -1.5 -2 -4.2 -2 -5.9 l0 -3.1 8.5 0 8.5 0 0 8.6 c0 6.4 0.3 8.5 1.3 8.1 0.6 -0.2 1 -1.2 0.9 -2.3 -0.2 -1 -0.1 -4.6 0.3 -8.1 l0.6 -6.2 5.2 -0.4 c2.9 -0.2 -1.6 -0.4 -9.9 -0.5 -13.6 -0.2 -15.4 0 -17.5 1.7 l-2.4 1.9 2.3 2.4 c1.3 1.5 2.2 3.7 2.2 5.6 l0 3.2 -10 0 c-8.2 0 -10 0.3 -10 1.5 0 1.2 1.7 1.5 9 1.5 4.9 0 10 -0.5 11.4 -1.1z m50.9 -4.1 c-1.9 -6.6 -2.3 -7.1 -2.3 -2.5 0 2 0.4 3.7 0.9 3.7 0.5 0 1.1 0.9 1.4 2 0.3 1.1 0.8 2 1.1 2 0.2 0 -0.2 -2.4 -1.1 -5.2z m14.7 1.7 c0 -3.3 0.2 -3.5 3.1 -3.5 2.2 0 4.3 1.1 7 3.5 3.4 3 4.6 3.5 8.9 3.5 3.8 0 5 -0.4 5 -1.5 0 -1.2 -1.4 -1.5 -6.5 -1.5 l-6.5 0 0 -3 c0 -3 -0.1 -3 -5.5 -3 l-5.5 0 0 -4.5 c0 -3.3 -0.4 -4.5 -1.4 -4.5 -2.5 0 -2.8 1.8 -2.1 10.1 0.5 5.8 1.1 7.9 2.1 7.9 0.9 0 1.4 -1.2 1.4 -3.5z m-27 -4.7 c0 -6.8 0.9 -8 5.1 -7.6 2.4 0.2 3.8 0 3.6 -0.7 -0.5 -1.6 -6.9 -1.8 -7.9 -0.3 -0.7 1.1 -1.6 4.1 -4.5 14.1 -0.4 1.7 -0.3 1.7 1.6 -0.2 1.3 -1.3 2.1 -3.4 2.1 -5.3z"/>
 </g>
 <g fill="#820f14">
 </g>
 <g fill="#36373a">
  <path d="M705 53 c0 -1.4 0.7 -2 2.4 -2 1.9 0 2.3 0.4 1.9 2 -0.3 1.1 -1.4 2 -2.4 2 -1.2 0 -1.9 -0.7 -1.9 -2z"/>
  <path d="M772.8 53.9 c-2.9 -1.6 -2.1 -2.9 1.7 -2.9 2.8 0 3.5 0.4 3.5 2 0 2.2 -2.4 2.6 -5.2 0.9z"/>
  <path d="M793 53 c0 -1.6 0.7 -2 3.5 -2 3.9 0 4.6 1.4 1.6 3 -3.1 1.6 -5.1 1.2 -5.1 -1z"/>
  <path d="M708 46.5 c0 -3.3 0.2 -3.5 3.5 -3.5 3.3 0 3.5 0.2 3.5 3.5 0 3.7 -2.5 5 -3.3 1.8 -0.4 -1.7 -0.5 -1.7 -0.6 0 0 0.9 -0.8 1.7 -1.6 1.7 -1 0 -1.5 -1.1 -1.5 -3.5z"/>
  <path d="M775 46 c0 -2.2 0.5 -4 1 -4 0.6 0 1 -0.7 1 -1.5 0 -0.8 0.9 -1.5 2 -1.5 2.1 0 2.9 3.3 1 4.5 -1.5 1 -1.2 3.5 0.5 3.5 0.8 0 1.5 0.7 1.5 1.5 0 1 -1.1 1.5 -3.5 1.5 -3.4 0 -3.5 -0.1 -3.5 -4z"/>
  <path d="M722 43.5 c0 -3 0.3 -3.5 2.4 -3.5 2.3 0 2.4 0.2 1.3 3.5 -1.4 4.6 -3.7 4.6 -3.7 0z"/>
  <path d="M747 43.5 c0 -2.2 0.5 -3.5 1.3 -3.5 0.8 0 1.8 1.6 2.4 3.5 1.1 3.3 1 3.5 -1.3 3.5 -2.1 0 -2.4 -0.5 -2.4 -3.5z"/>
 </g>
 <g fill="#9e8500">
 </g>
 <g fill="#e41c24">
  <path d="M471 30.5 l0 -25.5 62.5 0 62.5 0 0 25.5 0 25.5 -62.5 0 -62.5 0 0 -25.5z m10.5 1.5 c2.9 0 2.9 -0.2 1.4 -10.3 -1.3 -8.5 -2.1 -10.2 -4.3 -9.4 -1.4 0.6 -1.6 3 -1.6 17.5 0 17.4 1.3 24.7 1.8 10.3 0.3 -7.9 0.4 -8.1 2.7 -8.1z m23.5 15 c0 -0.5 -1.6 -1 -3.5 -1 l-3.5 0 0 -17 c0 -15.9 -0.1 -17 -1.9 -17 -1.5 0 -2 1.3 -3 7.8 -0.7 4.2 -1.4 8.7 -1.7 10 -0.4 1.8 0 2.2 2.1 2.2 2.5 0 2.5 0.1 2.5 8 l0 8 4.5 0 c2.5 0 4.5 -0.4 4.5 -1z m22 -5.5 l0 -6.5 4 0 c2.2 0 4 -0.4 4 -1 0 -0.5 -1.8 -1 -4 -1 l-4 0 0 -9.5 0 -9.5 3.3 -0.1 3.2 -0.1 -2.8 -1 c-5.8 -2.1 -6.1 -1.4 -5.4 15.7 l0.5 15.5 -3.9 0 c-3.2 0 -3.9 0.3 -3.9 2 0 1.7 0.7 2 4.5 2 l4.5 0 0 -6.5z m27 3.6 c0 -1.6 0.3 -4.3 0.6 -6 0.6 -3 0.5 -3.1 -2.8 -3.1 l-3.5 0 1 6 c0.8 4.8 1.3 6 2.8 6 1.4 0 1.9 -0.7 1.9 -2.9z m16.8 2.2 l-3.8 -0.4 0 -8 0 -7.9 3.8 -0.2 3.7 -0.1 -3.7 -0.4 -3.8 -0.4 0 -8 0 -7.9 3.6 0 c2.1 0 3.3 -0.4 2.9 -1 -0.3 -0.5 -4 -1 -8.1 -1 -5.9 0 -7.4 0.3 -7.4 1.5 0 1 1.1 1.5 3.5 1.5 l3.5 0 0 16.5 0 16.5 4.8 -0.2 c4.3 -0.1 4.4 -0.2 1 -0.5z m15.5 0 l-3.3 -0.4 0 -17.5 c0 -10.9 -0.4 -17.4 -1 -17.4 -0.6 0 -1 6.7 -1 18 l0 18 4.3 -0.2 c3.6 -0.1 3.8 -0.2 1 -0.5z m-74.2 -5.3 c5.8 0 5.9 0 5.8 -2.7 -0.2 -2.4 -0.2 -2.5 -0.6 -0.5 -0.4 1.9 -1.1 2.2 -5.4 2.2 -4.8 0 -4.9 0 -4.9 -3.2 0 -4.3 -0.6 -3.3 -1.3 2.2 -0.3 2.5 -0.4 3.9 -0.1 3.3 0.4 -0.8 2.7 -1.3 6.5 -1.3z m-23.2 -7.2 c0.1 -2 -0.4 -2.8 -1.5 -2.8 -1.2 0 -1.5 0.6 -1 2.3 0.3 1.2 0.6 3.6 0.7 5.2 0.1 2.9 0.1 3 0.9 0.5 0.4 -1.4 0.8 -3.7 0.9 -5.2z m54.2 -9.6 l3.8 0.3 -0.6 -6 c-0.6 -6.5 -2.3 -10 -2.3 -4.7 0 2.9 -0.3 3.2 -3 3.2 -3 0 -3 0.1 -2.9 5.3 0.1 2.8 0.3 4.4 0.6 3.4 0.4 -1.5 1.2 -1.8 4.4 -1.5z m-28.1 -6.1 c0 -0.5 -0.3 -2.3 -0.6 -4 -1.2 -5.7 -5.3 -3.3 -5.4 3.2 0 1.2 0.8 1.7 3 1.7 1.7 0 3 -0.4 3 -0.9z"/>
 </g>
 <g fill="#feda00">
  <path d="M906 30.5 l0 -24.5 16.8 0.2 16.7 0.3 0 24 0 24 -16.7 0.3 -16.8 0.2 0 -24.5z m28.5 0 l0 -19 -11.7 -0.3 -11.8 -0.3 0 19.6 0 19.6 11.8 -0.3 11.7 -0.3 0 -19z"/>
 </g>
 <g fill="#dfe0e1">
  <path d="M699.4 51.5 c-0.7 -1.9 -1.4 -4.1 -1.4 -4.8 0 -0.8 -1.1 -4.5 -2.5 -8.1 -1.4 -3.7 -2.5 -6.9 -2.5 -7.1 0 -0.3 2.2 -0.5 4.9 -0.5 4.5 0 5 0.3 5.9 2.8 l1 2.7 1.1 -2.7 c0.9 -2.5 1.5 -2.8 5.9 -2.8 4.3 0 4.9 0.3 5.9 2.8 l1 2.7 1.1 -2.7 c1 -2.5 1.7 -2.8 5.7 -2.8 5.2 0 5.2 0 1.4 8.9 -1 2.4 -1.9 5.2 -1.9 6.3 0 1 -0.7 3.4 -1.4 5.3 -1.4 3.1 -1.9 3.5 -5.4 3.5 -3.8 0 -4 -0.2 -5.5 -4.7 -0.9 -2.7 -1.6 -4 -1.6 -3 -0.1 1 -0.8 3.1 -1.6 4.7 -1.3 2.5 -2.2 3 -5.1 3 -3.1 0 -3.7 -0.4 -5 -3.5z m13.6 -14.5 c0 -1.1 -0.7 -2 -1.5 -2 -0.8 0 -1.5 0.2 -1.5 0.4 0 0.2 -0.3 1.1 -0.6 2 -0.4 1.2 0 1.6 1.5 1.6 1.4 0 2.1 -0.6 2.1 -2z"/>
  <path d="M727.5 52.8 c0.4 -1.3 1.5 -5 2.6 -8.3 1 -3.3 2.2 -7.6 2.7 -9.5 0.6 -2.5 1.4 -3.6 3 -3.8 1.2 -0.2 2.2 0.1 2.2 0.7 0 0.6 0.9 1.1 2 1.1 1.1 0 2 -0.5 2 -1.1 0 -0.6 1.2 -0.9 2.8 -0.7 2.4 0.3 2.9 0.9 4.4 6.8 0.9 3.6 2.4 8.3 3.2 10.5 0.8 2.2 1.5 4.6 1.6 5.3 0 1.8 -7.6 1.6 -8.4 -0.3 -0.4 -1 -2 -1.5 -5 -1.5 -3 0 -4.6 0.5 -5 1.5 -0.3 1 -1.9 1.5 -4.6 1.5 -3.8 0 -4.1 -0.2 -3.5 -2.2z m14.8 -7.5 c0.3 -0.5 0 -1.9 -0.5 -3.3 -1 -2.4 -1.1 -2.4 -1.8 -0.5 -1.3 3.1 -1.1 4.5 0.4 4.5 0.8 0 1.7 -0.3 1.9 -0.7z"/>
  <path d="M757 46 l0 -9 3.5 0 c2.3 0 3.5 -0.5 3.5 -1.4 0 -0.7 1.8 -1.8 4.3 -2.3 l4.2 -1.1 -5.1 -0.1 c-4.4 -0.1 -5.2 0.2 -5.7 1.9 -0.3 1.2 -1.4 2 -2.6 2 -1.6 0 -2.1 -0.6 -2.1 -2.6 l0 -2.6 9.9 0.4 c8 0.2 10.3 0.7 12 2.2 2.5 2.3 2.8 7.3 0.6 10.2 -2.3 3.1 -1.9 3.4 5 3.4 l6.4 0 -2.4 -3.6 c-2.9 -4.3 -3 -4.6 -1 -8.3 1.9 -3.8 5.5 -4.8 5.5 -1.6 0 1.3 -0.7 2.8 -1.6 3.3 -1.5 0.8 -1.5 1 0 1.5 1 0.4 1.6 0.1 1.6 -0.8 0 -2.1 6.6 -2 7.4 0 0.4 1 -0.1 1.5 -1.4 1.5 -2.6 0 -2.5 0.6 0.5 4.2 3 3.5 3.1 5.8 0.6 8.9 -1.8 2.3 -2.5 2.4 -14.3 2.4 -12.1 0 -12.6 -0.1 -16.1 -2.8 l-3.7 -2.8 0 3 c0 3 -0.1 3.1 -4.5 3.1 l-4.5 0 0 -9z m15.8 -6.2 c-0.7 -2 -6.8 -2.3 -6.8 -0.4 0 1.2 1 1.6 3.6 1.6 2.4 0 3.4 -0.4 3.2 -1.2z"/>
  <path d="M951.8 48.9 c-1 -0.5 -1.8 -1.7 -1.8 -2.4 0 -1.7 1.6 -2 2.5 -0.5 0.3 0.6 1.5 1 2.6 1 1.4 0 1.9 -0.7 1.9 -2.5 0 -1.6 0.6 -2.5 1.6 -2.5 1.2 0 1.4 0.9 1.2 3.8 -0.3 3.3 -0.6 3.7 -3.3 3.9 -1.6 0.2 -3.8 -0.2 -4.7 -0.8z"/>
  <path d="M963 47.6 c0 -1.6 0.6 -2.6 1.5 -2.6 0.8 0 1.5 0.4 1.5 0.9 0 0.5 1.2 1.1 2.8 1.3 4.2 0.5 3.2 2.3 -1.5 2.6 -4 0.3 -4.3 0.1 -4.3 -2.2z"/>
  <path d="M976.3 49.3 c-0.7 -0.2 -1.3 -1.4 -1.3 -2.4 0 -1.1 -0.4 -1.7 -1 -1.4 -1.3 0.8 -2.4 -3.8 -1.5 -6.4 1.1 -3.6 3.2 -2.5 3.2 1.8 0 2.1 0.3 4.4 0.7 5 0.9 1.4 5.6 1.5 5.6 0.1 0 -0.5 0.5 -1 1 -1 1.6 0 1.1 3.7 -0.6 4.4 -1.8 0.7 -4.3 0.7 -6.1 -0.1z"/>
  <path d="M991.8 48.9 c-1 -0.5 -1.8 -1.7 -1.8 -2.4 0 -0.8 -0.4 -1.5 -1 -1.5 -0.5 0 -1 -0.8 -1 -1.7 -0.1 -1.6 -0.2 -1.6 -1.5 0.1 -1.4 1.8 -1.5 1.7 -1.4 -2.5 0.1 -2.4 0.3 -3.6 0.6 -2.6 0.5 2.1 2.3 2.3 2.3 0.2 0 -0.8 0.8 -1.5 1.8 -1.5 1.5 0 1.7 0.6 1.4 3.5 -0.2 1.9 0.1 4.2 0.8 5 1.4 1.7 5 2 5 0.5 0 -0.5 0.7 -1 1.6 -1 1 0 1.4 0.7 1.2 2.3 -0.2 1.6 -1 2.3 -3.3 2.4 -1.6 0.2 -3.8 -0.2 -4.7 -0.8z"/>
  <path d="M1003 41.5 l0 -8.5 3 0 c1.7 0 3 0.5 3 1 0 0.6 -0.7 1 -1.5 1 -1 0 -1.5 1 -1.5 3 0 2.6 0.4 3 2.6 3 1.4 0 2.2 0.4 1.9 1 -0.3 0.5 0.1 2.3 1 4 1.4 2.8 1.4 3 -0.3 3 -1 0 -2.3 -1.3 -3.2 -3.2 l-1.4 -3.3 -0.3 3.8 c-0.3 2.4 -0.9 3.7 -1.9 3.7 -1.1 0 -1.4 -1.8 -1.4 -8.5z"/>
  <path d="M1039 41.5 c0 -6.9 0.3 -8.5 1.5 -8.5 1 0 1.5 1 1.5 3 0 2.7 0.3 3 3 3 2.7 0 3 -0.3 3 -3 0 -2 0.5 -3 1.5 -3 1.2 0 1.5 1.6 1.5 8.5 0 6.9 -0.3 8.5 -1.5 8.5 -1.1 0 -1.5 -1.1 -1.5 -4 0 -3.8 -0.2 -4 -3 -4 -2.8 0 -3 0.2 -3 4 0 2.9 -0.4 4 -1.5 4 -1.2 0 -1.5 -1.6 -1.5 -8.5z"/>
  <path d="M1054 41.6 c0 -7.1 0.3 -8.6 1.5 -8.6 1.3 0 1.5 1.4 1.3 8.2 -0.2 5.4 -0.7 8.3 -1.5 8.6 -1 0.3 -1.3 -1.8 -1.3 -8.2z"/>
  <path d="M1062.8 48.9 c-1 -0.5 -1.8 -1.7 -1.8 -2.4 0 -1.7 1.6 -2 2.5 -0.5 0.3 0.6 2 1 3.6 1 2 0 2.9 0.4 2.7 1.3 -0.6 1.6 -4.8 2 -7 0.6z"/>
  <path d="M497 44.5 c0 -2.8 0.4 -3.5 1.9 -3.5 1.1 0 2.2 0.6 2.4 1.3 0.4 1 0.6 1 0.6 0 0.1 -0.7 0.8 -1.3 1.6 -1.3 1 0 1.5 1.1 1.5 3.5 0 3.4 -0.1 3.5 -4 3.5 -3.9 0 -4 -0.1 -4 -3.5z"/>
  <path d="M369.2 42.8 c-1.4 -1.4 -1.6 -3.8 -0.4 -3.8 1 0 4.2 3.3 4.2 4.3 0 1.1 -2.5 0.8 -3.8 -0.5z"/>
  <path d="M232.5 42 c0.3 -0.5 1.3 -1 2.1 -1 0.8 0 1.4 -0.7 1.4 -1.5 0 -1 1 -1.5 3 -1.5 2 0 3 0.5 3 1.5 0 0.8 0.9 1.5 1.9 1.5 1.1 0 2.3 0.5 2.6 1 0.4 0.6 -2.2 1 -7 1 -4.8 0 -7.4 -0.4 -7 -1z"/>
  <path d="M260.5 42 c0.3 -0.5 1.3 -1 2.1 -1 0.8 0 1.4 -0.7 1.4 -1.5 0 -1 1 -1.5 3 -1.5 2 0 3 0.5 3 1.5 0 0.8 0.6 1.5 1.4 1.5 0.8 0 1.8 0.5 2.1 1 0.4 0.6 -2 1 -6.5 1 -4.5 0 -6.9 -0.4 -6.5 -1z"/>
  <path d="M283.7 39.2 c5.1 -5.1 10.3 -11.3 10.3 -12.4 0 -1.4 3.9 -4.8 5.5 -4.8 1.2 0 1.1 0.7 -0.7 3.3 -1.3 1.7 -2.6 3.4 -3 3.5 -0.5 0.2 -0.8 1.3 -0.8 2.3 0 1.1 -0.4 1.7 -1 1.4 -0.5 -0.3 -2.1 1.3 -3.6 3.7 -1.7 2.6 -2.3 4.3 -1.5 4.6 2.8 0.9 0.6 2.2 -3.9 2.2 l-5.1 0 3.8 -3.8z"/>
  <path d="M311.5 42 c0.3 -0.5 1.2 -1 2 -1 0.7 0 1.7 -0.9 2 -2 0.3 -1.1 1.3 -2 2.1 -2 0.8 0 1.4 0.9 1.4 2 0 1.1 0.7 2 1.5 2 0.8 0 1.5 0.5 1.5 1 0 0.6 -2.5 1 -5.6 1 -3.4 0 -5.3 -0.4 -4.9 -1z"/>
  <path d="M329 42 c0 -0.5 0.7 -1 1.5 -1 0.8 0 1.5 -0.7 1.5 -1.5 0 -0.9 0.9 -1.5 2.5 -1.5 1.4 0 2.8 0.7 3.1 1.5 0.4 0.8 1.5 1.5 2.5 1.5 1 0 1.9 0.5 1.9 1 0 0.6 -2.8 1 -6.5 1 -3.7 0 -6.5 -0.4 -6.5 -1z"/>
  <path d="M346 42 c0 -0.5 0.9 -1 2 -1 1.1 0 2 -0.7 2 -1.5 0 -0.9 0.9 -1.5 2.4 -1.5 1.3 0 2.6 0.7 3 1.5 0.3 0.8 1.2 1.5 2.1 1.5 0.8 0 1.5 0.5 1.5 1 0 0.6 -2.8 1 -6.5 1 -3.7 0 -6.5 -0.4 -6.5 -1z"/>
  <path d="M1033.5 40 c1.7 -1.9 1.7 -2.1 0 -4 -1.8 -2 -1.7 -2 0.7 -2 1.8 0 2.7 0.7 3.1 2.2 0.8 2.9 -0.9 5.8 -3.5 5.8 -2 0 -2.1 -0.1 -0.3 -2z"/>
  <path d="M11.7 36.5 c-4.8 -4.7 -4.8 -6.8 0 -9.4 2.8 -1.5 3.3 -1.4 3.3 0.4 0 0.9 -1.1 2 -2.5 2.5 -3.4 1.3 -3.1 2.6 1 5.2 1.9 1.3 3.5 2.9 3.5 3.6 0 2 -1.5 1.4 -5.3 -2.3z"/>
  <path d="M805 37.5 c0 -0.8 -0.4 -1.5 -1 -1.5 -0.5 0 -1 -1.1 -1 -2.5 0 -2.1 0.5 -2.5 3 -2.5 2.8 0 3 0.2 3 4 0 3.3 -0.3 4 -2 4 -1.1 0 -2 -0.7 -2 -1.5z"/>
  <path d="M64 36.7 c0 -1.9 2.1 -3.7 4.2 -3.7 1 0 1.8 0.6 1.8 1.4 0 1 -0.7 1.2 -2.2 0.8 -1.7 -0.4 -2 -0.2 -1.5 1.1 0.4 1.1 0.1 1.7 -0.8 1.7 -0.8 0 -1.5 -0.6 -1.5 -1.3z"/>
  <path d="M117 34.1 c0 -3.3 1.1 -5.1 3.1 -5.1 1.6 0 1.8 0.3 0.9 1.9 -1.3 2.5 -1.3 3.4 0 2.6 0.6 -0.3 1 0.1 1 0.9 0 1 -0.9 1.6 -2.5 1.6 -1.8 0 -2.5 -0.5 -2.5 -1.9z"/>
  <path d="M132 32.1 c1.3 -2.5 1.3 -4.4 0 -3.6 -0.5 0.3 -1 -0.1 -1 -0.9 0 -0.9 0.9 -1.6 2 -1.6 1.7 0 2 0.7 2 4 0 3.4 -0.3 4 -2 4 -1.7 0 -1.9 -0.3 -1 -1.9z"/>
  <path d="M64.3 31.3 c-0.7 -0.2 -1.3 -1.3 -1.3 -2.4 0 -1.5 0.7 -1.9 3.3 -1.9 2.4 0 2.8 0.3 1.7 1 -0.8 0.5 -1 1 -0.4 1 0.7 0 1.4 0.7 1.8 1.5 0.4 1.1 -0.1 1.5 -1.7 1.4 -1.2 0 -2.8 -0.3 -3.4 -0.6z"/>
  <path d="M243 31.3 c0 -0.5 1.4 -1.6 3 -2.5 2.9 -1.6 3 -1.6 3 0.1 0 1.1 -1 2.1 -2.2 2.5 -3 0.8 -3.8 0.7 -3.8 -0.1z"/>
  <path d="M321.2 24.3 c1.6 -4.1 1.9 -5.8 1 -6.1 -2.3 -0.7 -1.2 -2.2 1.8 -2.2 2.9 0 3 0.2 2.9 4.3 0 3.2 -0.2 3.7 -0.9 2.2 -0.7 -1.9 -0.9 -1.8 -1.9 0.8 -1.4 3.7 -1.4 5.4 0.2 6 0.6 0.3 -0.2 0.6 -2 0.6 l-3.2 0.1 2.1 -5.7z"/>
  <path d="M693 25.5 l0 -4.5 10.1 0 10.1 0 -2.6 -3.1 c-3.3 -3.9 -3.3 -7.2 0 -9.8 2.5 -1.9 4 -2.1 20.5 -2.1 l17.9 0 0 3.5 0 3.5 -5 0 c-4.9 0 -5 0 -5.2 3.3 -0.1 1.7 -0.1 4.6 0.1 6.2 0.4 6 -0.6 7.5 -4.9 7.5 l-4 0 0 -8.5 0 -8.5 -5.6 0 -5.5 0 1.9 2.7 c2.8 4 3.4 6.7 2.1 9.6 -1.7 3.8 -5 4.7 -17.9 4.7 l-12 0 0 -4.5z m17.3 -0.2 c-2.3 -0.2 -6.4 -0.2 -9 0 -2.6 0.2 -0.7 0.3 4.2 0.3 5 0 7.1 -0.1 4.8 -0.3z"/>
  <path d="M746 29 c0 -1.1 3.3 -12 5.7 -18.8 l1.5 -4.3 6.6 0.3 6.6 0.3 3.6 11.3 c2 6.2 3.4 11.4 3.2 11.7 -0.3 0.3 -2.3 0.5 -4.5 0.5 -3 0 -4 -0.4 -4.4 -2 -0.8 -3 -7.5 -2.8 -9.7 0.3 -1.2 1.5 -1.8 1.8 -2.2 1 -0.3 -0.7 -1 -1.3 -1.5 -1.3 -0.6 0 -0.7 0.5 -0.4 1 0.4 0.6 -0.5 1 -1.9 1 -1.4 0 -2.6 -0.4 -2.6 -1z m16 -9.4 c0 -0.3 -0.5 -1.7 -1.1 -3.3 -1 -2.6 -1.2 -2.7 -1.9 -0.8 -1.4 3.3 -1.1 4.5 1 4.5 1.1 0 2 -0.2 2 -0.4z"/>
  <path d="M775.5 28.8 c-0.2 -0.7 -0.3 -6 -0.2 -11.8 l0.2 -10.5 9.6 -0.3 c8.4 -0.2 9.9 0 12.2 1.8 3.4 2.7 3.6 7.4 0.5 10.7 l-2.1 2.3 6.6 0 6.7 0 0 4.5 c0 4.4 -0.1 4.5 -3.2 4.5 -2.4 0 -2.9 -0.3 -1.8 -1 2.2 -1.3 0.6 -2.2 -4.9 -2.8 -4.6 -0.4 -5 -0.3 -5.3 1.9 -0.3 2.3 -0.4 2.3 -4.5 -1.5 l-4.3 -3.8 0 3.6 c0 2.9 -0.4 3.6 -2 3.6 -1.4 0 -2 -0.7 -2 -2.1 0 -1.2 -0.4 -1.7 -1.1 -1.4 -0.6 0.4 -0.8 1.3 -0.5 2.1 0.4 0.9 -0.2 1.4 -1.5 1.4 -1.1 0 -2.1 -0.6 -2.4 -1.2z m16 -15.3 c0 -0.5 -1.5 -1.1 -3.2 -1.3 -2.5 -0.3 -3.3 0.1 -3.3 1.3 0 1.2 0.8 1.6 3.3 1.3 1.7 -0.2 3.2 -0.7 3.2 -1.3z"/>
  <path d="M58 26 c0 -1.1 0.7 -2 1.5 -2 0.8 0 1.5 0.9 1.5 2 0 1.1 -0.7 2 -1.5 2 -0.8 0 -1.5 -0.9 -1.5 -2z"/>
  <path d="M949 20 c0 -6.7 0.3 -8 1.6 -8 2.2 0 4.3 2.9 4.3 6 0 2.4 0 2.4 -1.4 0.6 -1.4 -1.8 -1.5 -1.5 -1.5 3.7 0 4.4 -0.3 5.7 -1.5 5.7 -1.2 0 -1.5 -1.6 -1.5 -8z"/>
  <path d="M961.2 25 c0 -1.9 0.2 -2.7 0.5 -1.7 0.2 0.9 0.2 2.5 0 3.5 -0.3 0.9 -0.5 0.1 -0.5 -1.8z"/>
  <path d="M963.3 26.8 c0.2 -0.7 1.3 -3.9 2.3 -7 1.8 -5.9 3.9 -7.4 6.1 -4.5 1 1.2 4.3 10.4 4.3 11.9 0 1.8 -2.8 0.6 -3.8 -1.7 -0.7 -1.5 -2 -2.5 -3.2 -2.5 -1.3 0 -2.4 1 -3 2.5 -0.5 1.4 -1.5 2.5 -2.1 2.5 -0.6 0 -0.9 -0.6 -0.6 -1.2z m7.7 -7 c0 -0.7 -0.4 -1.9 -0.9 -2.6 -0.7 -1.1 -1 -1 -1.5 0.3 -1 2.6 -0.7 3.5 0.9 3.5 0.8 0 1.5 -0.6 1.5 -1.2z"/>
  <path d="M979 20.9 c0 -6.2 -0.2 -7.1 -2 -7.6 -3.9 -1 -1.9 -2.3 3.5 -2.3 5.4 0 7.4 1.3 3.5 2.3 -1.8 0.5 -2 1.4 -2 7.6 0 5.6 -0.3 7.1 -1.5 7.1 -1.2 0 -1.5 -1.5 -1.5 -7.1z"/>
  <path d="M987 19.4 c0 -6.4 0.3 -8.5 1.3 -8.2 0.8 0.3 1.3 3.2 1.5 8.6 0.2 6.8 0 8.2 -1.3 8.2 -1.2 0 -1.5 -1.5 -1.5 -8.6z"/>
  <path d="M1020 26.6 c0 -0.8 -1 -1.6 -2.2 -1.8 -1.7 -0.2 -2.4 -1.1 -2.6 -3.3 -0.2 -2.9 -0.2 -2.9 1.3 -1.1 1.4 1.8 1.5 1.6 1.5 -3.2 0 -4 0.4 -5.2 1.5 -5.2 1.2 0 1.5 1.6 1.6 7.8 l0 7.7 2.7 -7.2 c2.9 -7.9 5.4 -9.5 7.2 -4.7 1.4 3.5 1.3 4.4 -0.5 4.4 -0.8 0 -1.5 -0.7 -1.5 -1.5 0 -2.2 -1.7 -1.8 -2.3 0.5 -0.3 1.3 0 2 0.9 2 0.8 0 1.4 0.5 1.4 1 0 0.6 -0.7 1 -1.5 1 -0.9 0 -2.1 1.1 -2.7 2.5 -1.2 2.7 -4.8 3.5 -4.8 1.1z"/>
  <path d="M1033 25.5 c0 -1.4 0.2 -2.5 0.4 -2.5 0.2 0 0.6 1.1 0.8 2.5 0.3 1.4 0.1 2.5 -0.3 2.5 -0.5 0 -0.9 -1.1 -0.9 -2.5z"/>
  <path d="M1036 25.5 c0 -1.6 0.6 -2.5 1.5 -2.5 0.8 0 1.5 0.7 1.5 1.5 0 0.9 0.9 1.5 2.5 1.5 1.4 0 2.5 0.5 2.5 1 0 0.6 -1.8 1 -4 1 -3.6 0 -4 -0.2 -4 -2.5z"/>
  <path d="M75 25 c0 -1.8 0.5 -2.1 3.3 -1.8 2 0.2 3.2 0.8 3.2 1.8 0 1 -1.2 1.6 -3.2 1.8 -2.8 0.3 -3.3 0 -3.3 -1.8z"/>
  <path d="M993.6 24.8 c-0.9 -1.2 -1.5 -3.8 -1.5 -5.8 0.1 -1.9 0.3 -2.7 0.6 -1.7 0.2 0.9 0.9 1.7 1.4 1.7 0.5 0 0.9 0.9 0.9 1.9 0 1.1 0.5 2.3 1 2.6 1.3 0.8 1.3 3.5 0.1 3.5 -0.6 0 -1.7 -1 -2.5 -2.2z"/>
  <path d="M1002.8 18.8 c-0.5 -5 -0.4 -5.3 1.7 -4.5 2 0.8 2.1 8.7 0.1 8.7 -0.9 0 -1.5 -1.5 -1.8 -4.2z"/>
  <path d="M1008.2 17.3 c-0.2 -6.7 0.4 -7.5 3.3 -4.3 1.8 1.9 1.7 2 -0.3 2 -1.7 0 -2.2 0.7 -2.5 4.3 -0.3 3.3 -0.4 2.9 -0.5 -2z"/>
  <path d="M236 19.5 c0 -0.8 -0.9 -1.5 -2.1 -1.5 -1.1 0 -1.7 -0.4 -1.4 -1 0.3 -0.5 1.7 -1 3.1 -1 1.9 0 2.4 0.5 2.4 2.5 0 1.4 -0.4 2.5 -1 2.5 -0.5 0 -1 -0.7 -1 -1.5z"/>
  <path d="M247.4 20 c-0.6 -0.6 -2.1 -1.2 -3.3 -1.3 -2.8 -0.2 -2.7 -2.7 0.2 -2.7 3.1 0 5 1.4 4.5 3.4 -0.2 1.3 -0.6 1.4 -1.4 0.6z"/>
  <path d="M264 19.5 c0 -0.8 -0.9 -1.5 -2 -1.5 -1.1 0 -2 -0.4 -2 -1 0 -0.6 3 -1 7 -1 4 0 7 0.4 7 1 0 0.6 -0.9 1 -2 1 -1.1 0 -2 0.7 -2 1.5 0 1 -1 1.5 -3 1.5 -2 0 -3 -0.5 -3 -1.5z"/>
  <path d="M283.3 19.1 c-1.3 -1.1 -2.3 -2.2 -2.3 -2.5 0 -0.3 2.7 -0.6 6 -0.6 3.3 0 6 0.4 6 1 0 0.6 -0.5 1 -1.1 1 -0.6 0 -0.9 0.7 -0.5 1.5 0.8 2.2 -5.3 1.9 -8.1 -0.4z"/>
  <path d="M349.6 19.5 c-0.3 -0.8 -1.2 -1.5 -2.1 -1.5 -0.8 0 -1.5 -0.4 -1.5 -1 0 -0.5 1.1 -1 2.5 -1 2 0 2.5 0.5 2.5 2.5 0 2.8 -0.5 3.2 -1.4 1z"/>
  <path d="M358.5 19.1 c-1.1 -0.5 -2.3 -0.7 -2.7 -0.4 -0.5 0.2 -0.8 -0.3 -0.8 -1.2 0 -2.4 6.4 -1.7 6.8 0.8 0.4 1.8 -0.2 2 -3.3 0.8z"/>
 </g>
 <g fill="#fdfdfd">
  <path d="M115.7 57.2 c-2.1 -2.4 -2.1 -5.4 0 -12.3 0.9 -3 1.6 -7.1 1.4 -9.2 -0.2 -2.6 0.5 -5.1 2.4 -8.2 4.1 -7.1 6.2 -5.8 2.5 1.5 -2.9 5.8 -2.5 5.8 2.8 0.1 6.7 -7.2 9.7 -6.7 10 1.6 0.1 3.5 -0.5 4.9 -3.2 7.8 -2.2 2.3 -4.2 3.5 -6 3.5 -2.9 0 -3.9 1.8 -5.8 10.5 -1.4 6.3 -2 7 -4.1 4.7z m12.8 -20.8 c1.6 -0.7 4.5 -5.4 4.5 -7.5 0 -1.5 -3.4 1.5 -6.2 5.4 -1.9 2.7 -1.5 3.3 1.7 2.1z"/>
  <path d="M478 51 l-3.5 -0.5 0 -20.5 0 -20.5 4.7 -0.3 c5.4 -0.4 5 -1 7.2 12.3 1.4 8.8 1.6 8.5 3.7 -4.7 l1.2 -7.8 4.8 0 4.9 0 0 17.2 c0 9.4 0.2 16.9 0.4 16.7 0.3 -0.2 1.2 -5.6 2.1 -11.9 0.9 -6.3 2.1 -13.9 2.6 -16.7 l1 -5.3 4.9 0 4.9 0 0.6 4.7 c0.4 2.7 1 7.1 1.5 9.8 0.5 2.8 1.2 7.8 1.6 11.3 0.4 3.4 0.9 6.2 1.3 6.2 0.3 0 0.6 -7.1 0.6 -15.7 l0 -15.8 3.4 -0.3 c5.4 -0.5 10.1 0.7 12.7 3.3 l2.4 2.4 0 -2.9 c0 -2.8 0.3 -3 3.5 -3 2 0 3.7 0.6 3.9 1.3 0.3 0.6 1 6 1.7 11.9 0.7 5.9 1.5 10.6 1.7 10.3 0.4 -0.4 3.1 -19.5 3.2 -22.3 0 -1 2.5 -1.2 10.8 -1 l10.7 0.3 0.3 3.8 c0.3 3.6 0.3 3.7 -3.2 3.7 l-3.6 0 0 4.8 c0 4.7 0 4.7 3.3 4.7 3 0 3.2 0.2 3.5 3.8 0.3 3.6 0.3 3.7 -3.2 3.7 l-3.6 0 0 5 0 5 3.5 0 c3.3 0 3.5 0.2 3.5 3.4 l0 3.4 -7.1 0.4 c-3.9 0.2 -7.3 0.1 -7.5 -0.1 -0.2 -0.2 -0.4 -7.9 -0.5 -17 l-0.1 -16.6 -1.9 11.5 c-1.1 6.3 -2.2 13.9 -2.6 16.8 l-0.6 5.2 -3.8 0 c-2.2 0 -4.2 0.1 -4.6 0.3 -0.5 0.1 -1.7 -4.8 -2.8 -11 -1.8 -9.9 -3.5 -15.4 -3.5 -11.1 0 0.8 -0.9 2.7 -2 4 -1 1.4 -1.8 2.7 -1.6 2.9 0.2 0.2 1.3 3.6 2.4 7.6 l2 7.1 -3.5 0.4 c-2 0.2 -3.7 0 -3.8 -0.6 -0.2 -0.6 -1.1 -3.7 -2 -6.8 -0.8 -3.2 -2 -5.8 -2.5 -5.8 -0.6 0 -1 3 -1 6.8 l0 6.7 -7.5 -0.3 -7.5 -0.4 0 -2.9 c0 -2.6 -0.4 -2.9 -3 -2.9 -1.6 0 -3.1 0.5 -3.1 1 -0.1 0.6 -0.3 1.5 -0.4 2 -0.1 0.6 -0.3 1.6 -0.4 2.3 -0.1 0.8 -2.2 1.2 -7.3 1.1 l-7.3 -0.2 -0.6 -8.3 c-0.3 -4.6 -0.6 -7.5 -0.7 -6.5 -0.8 8.6 -2.5 14.4 -4.3 14.9 -2 0.5 -2.4 -0.3 -3.4 -6.8 -1.5 -9.8 -2 -10.1 -2.5 -1.5 l-0.5 8.5 -3.5 -0.5z m35.3 -18.2 c-0.3 -2.9 -1 -6.4 -1.4 -7.8 -0.7 -2.4 -0.7 -2.4 -0.8 0.6 -0.1 1.7 -0.4 5.2 -0.7 7.8 -0.6 4.2 -0.5 4.6 1.4 4.6 1.9 0 2.1 -0.4 1.5 -5.2z m20.7 -4.7 c1.5 -2.9 1.2 -7.7 -0.6 -9.5 -2.7 -2.8 -3.4 -1.8 -3.4 4.9 0 5 0.3 6.5 1.5 6.5 0.8 0 1.9 -0.9 2.5 -1.9z"/>
  <path d="M578 30 l0 -21 4 0 4 0 0 17.5 0 17.5 3 0 c2.8 0 3 0.3 3 3.5 l0 3.5 -7 0 -7 0 0 -21z"/>
  <path d="M958 48.9 c0 -0.8 -1.1 -1 -3.4 -0.6 -3.9 0.6 -6 -1 -7.1 -5.4 -0.8 -3.1 1.5 -8.3 4 -9.3 3.1 -1.1 7.5 -0.7 7.5 0.8 0 0.9 -0.7 1.2 -1.9 0.9 -3.5 -0.9 -6.1 1.4 -6.1 5.5 0 4.1 1.4 6.2 4.2 6.2 1.3 0 1.8 -0.8 1.8 -2.5 0 -1.6 0.6 -2.5 1.5 -2.5 1.7 0 2.2 6.5 0.5 7.5 -0.5 0.3 -1 0.1 -1 -0.6z"/>
  <path d="M963 41.6 l0 -8.6 4 0 c2.2 0 4 0.5 4 1 0 0.6 -1.1 1 -2.5 1 -2 0 -2.5 0.5 -2.5 2.5 0 2 0.5 2.5 2.6 2.5 1.4 0 2.3 0.4 1.9 1 -0.3 0.6 -1.5 1 -2.6 1 -1.3 0 -1.9 0.7 -1.9 2.4 0 1.9 0.6 2.5 2.8 2.8 4.2 0.5 3.2 2.3 -1.5 2.6 l-4.3 0.3 0 -8.5z"/>
  <path d="M976.2 49.3 c-0.7 -0.3 -2 -1.9 -2.8 -3.5 -1.8 -3.5 -1.3 -8.2 1.3 -11 3.3 -3.7 11.3 -1.2 11.3 3.4 0 0.9 0.5 1.8 1 2 1.4 0.4 -2.5 8.4 -4.5 9.1 -0.8 0.4 -1.5 0.2 -1.5 -0.3 0 -1.2 -2.7 -1.3 -3.2 -0.1 -0.1 0.4 -0.9 0.6 -1.6 0.4z m6.4 -4.7 c1.6 -6.4 -1.8 -11.8 -5.3 -8.3 -1.7 1.6 -2.2 7.4 -0.8 9.6 0.3 0.6 1.7 1.1 3 1.1 1.8 0 2.6 -0.7 3.1 -2.4z"/>
  <path d="M998 48.9 c0 -0.8 -1.1 -1 -3.4 -0.6 -4.8 0.8 -6.6 -1.5 -6.2 -7.7 0.2 -3.4 0.8 -5.3 2.2 -6.3 2.1 -1.5 8.6 -1.4 8.2 0.2 -0.2 0.5 -1.3 0.8 -2.4 0.7 -1.2 -0.2 -2.9 0.4 -3.8 1.3 -1.9 1.9 -2.1 7.6 -0.4 9.3 1.9 1.9 4.6 1.4 5 -1 0.2 -1.2 0.9 -2.3 1.6 -2.6 1.5 -0.5 1.7 6.4 0.2 7.3 -0.5 0.3 -1 0.1 -1 -0.6z"/>
  <path d="M1008.6 46.5 c-0.8 -1.9 -2.2 -3.8 -3.1 -4.1 -2.4 -1 -1.7 -2.5 0.9 -1.8 1.9 0.4 2.6 0.1 3.1 -1.6 0.8 -2.6 0.4 -3.1 -3.8 -4.7 l-3.2 -1.2 4.5 0.2 c3.9 0.2 4.6 0.6 5.4 2.9 0.8 2.1 0.6 3.2 -0.8 4.7 -1.7 1.8 -1.7 2.1 0 5.3 l1.7 3.3 2.7 -8 c1.5 -4.6 3.3 -8.1 4.1 -8.3 1 -0.2 2.2 2 3.8 7 1.3 4 2.6 7.9 2.8 8.6 0.3 0.6 -0.2 1.2 -1.1 1.2 -0.9 0 -2.1 -1.1 -2.6 -2.5 -0.7 -1.7 -1.7 -2.5 -3.4 -2.5 -1.7 0 -2.6 0.7 -3 2.5 -0.5 2 -1.3 2.5 -3.6 2.5 -2.5 0 -3.2 -0.6 -4.4 -3.5z m12.6 -6 c-0.2 -1.4 -0.8 -2.5 -1.2 -2.5 -0.4 0 -1 1.1 -1.2 2.5 -0.4 1.9 -0.1 2.5 1.2 2.5 1.3 0 1.6 -0.6 1.2 -2.5z"/>
  <path d="M1028 41.6 l0 -8.6 3.3 0 c3.7 0 5.1 0.8 6 3.4 1 2.4 -1.8 6.6 -4.3 6.6 -1.4 0 -2 0.8 -2.2 3.2 -0.2 1.7 -0.9 3.3 -1.5 3.6 -1 0.3 -1.3 -1.8 -1.3 -8.2z m6.4 -2.1 c2 -1.5 2 -1.5 0 -3 -2.8 -2.1 -3.4 -1.8 -3.4 1.5 0 3.3 0.6 3.6 3.4 1.5z"/>
  <path d="M1039 41.5 c0 -6.9 0.3 -8.5 1.5 -8.5 1 0 1.5 1 1.5 3 0 2.9 0.2 3 4.8 3.1 2.6 0.1 3.9 0.3 3 0.6 -1 0.2 -1.8 0.9 -1.8 1.4 0 0.5 -1.3 0.9 -3 0.9 -2.8 0 -3 0.2 -3 4 0 2.9 -0.4 4 -1.5 4 -1.2 0 -1.5 -1.6 -1.5 -8.5z m1.7 1.8 c-0.3 -1 -0.5 -0.2 -0.5 1.7 0 1.9 0.2 2.7 0.5 1.8 0.2 -1 0.2 -2.6 0 -3.5z"/>
  <path d="M1054.5 41.5 c0 -6.3 0.3 -8.5 1.3 -8.5 1 0 1.2 2 1 8.2 -0.4 11 -2.3 11.3 -2.3 0.3z"/>
  <path d="M1068 48.9 c0 -0.7 -1 -0.9 -2.9 -0.6 -5.2 1.1 -8.6 -5.6 -5.7 -11.1 1.7 -3.3 3.4 -4.2 7.7 -4.2 2 0 2.9 0.5 2.9 1.6 0 1.1 -0.6 1.3 -2 0.9 -3.5 -1.1 -6 1.2 -6 5.3 0 4.5 1.4 6.2 5.2 6.2 2.8 0 3.7 1.3 1.8 2.5 -0.5 0.3 -1 0.1 -1 -0.6z"/>
  <path d="M180.3 41.3 l0.2 -7.8 -8.3 -0.3 c-7.9 -0.3 -8.3 -0.4 -8 -2.5 0.3 -2 0.9 -2.2 8.2 -2.5 l7.9 -0.3 -0.7 -7.8 c-0.5 -6.9 -0.4 -8 1.1 -8.5 2.7 -1.1 4.1 1.4 5 8.9 l0.8 7 8.3 0.3 c7.9 0.3 8.2 0.4 8.2 2.7 0 2.3 -0.3 2.4 -7.7 2.7 l-7.8 0.3 -0.9 7.8 c-0.8 7.6 -0.9 7.7 -3.7 7.7 l-2.8 0 0.2 -7.7z"/>
  <path d="M419 41 l0 -8 -8 0 c-7.9 0 -8 0 -8 -2.5 0 -2.5 0.1 -2.5 8.1 -2.5 l8.1 0 -0.7 -5.7 c-0.3 -3.2 -0.9 -6.8 -1.2 -8 -0.3 -1.5 0.1 -2.3 1.6 -2.8 3 -0.9 3.8 0 4.5 4.5 0.3 2.2 0.9 5.8 1.2 8 l0.6 3.9 8.1 0.3 c7.6 0.3 8.2 0.5 8.5 2.5 0.3 2.1 -0.1 2.2 -8 2.5 l-8.3 0.3 -0.3 5.5 c-0.4 8.6 -0.9 10 -3.7 10 -2.5 0 -2.5 -0.1 -2.5 -8z"/>
  <path d="M641.2 41.3 l0.3 -7.8 -8.2 -0.3 c-8.1 -0.3 -8.3 -0.3 -8.3 -2.7 0 -2.4 0.2 -2.5 8 -2.5 l8 0 0 -3.7 c-0.1 -2.1 -0.5 -5.7 -0.9 -8 -0.7 -3.7 -0.6 -4.3 1.1 -4.9 3 -0.9 4.1 0.9 5.3 8.8 l1.1 7.3 8.2 0.3 c7.9 0.3 8.2 0.4 8.2 2.7 0 2.3 -0.3 2.4 -8.2 2.7 l-8.3 0.3 -0.3 7.8 -0.3 7.7 -3 0 -3.1 0 0.4 -7.7z"/>
  <path d="M854 41.1 l0 -8.1 -8 0 c-7.9 0 -8 0 -8 -2.5 0 -2.5 0.1 -2.5 8.1 -2.5 l8.2 0 -0.7 -5.7 c-0.4 -3.1 -0.9 -6.7 -1.2 -7.9 -0.4 -1.7 0 -2.4 1.6 -2.9 3.2 -1 4 0.4 5.2 8.9 l1.1 7.6 8.4 0 c8.2 0 8.3 0 8.3 2.5 0 2.4 -0.2 2.4 -8.2 2.7 l-8.3 0.3 -0.5 7.5 c-0.5 7.3 -0.6 7.5 -3.2 7.8 l-2.8 0.3 0 -8z"/>
  <path d="M22.2 46.8 c-0.7 -0.7 -1.2 -1.7 -1.2 -2.4 0 -0.6 -1.8 -2.3 -4 -3.8 -2.3 -1.5 -3.8 -3.1 -3.5 -3.6 0.3 -0.5 0 -0.7 -0.8 -0.4 -0.8 0.3 -2.1 -0.6 -3.1 -2 -2 -3.1 -2 -4.3 -0.2 -4.3 0.8 0 1.2 0.6 0.9 1.3 -0.4 1.2 7.9 7.4 9.9 7.4 0.4 0 0.8 -2.3 0.8 -5.1 l0 -5.2 -4.4 0.5 c-3.1 0.4 -4.6 0.1 -5 -0.7 -0.4 -1.2 1.8 -2.5 7 -4 1.7 -0.4 2.3 -1.6 2.8 -5.6 0.8 -6.2 2.7 -6.1 4.2 0.2 0.9 3.6 1.5 4.5 3.5 4.7 6.9 0.7 9.3 1.5 11.6 3.8 1.9 1.9 2.2 2.8 1.3 4.4 -0.7 1.2 -2.1 2 -3.7 2 -2.1 0 -2.4 -0.3 -1.5 -1.2 1.9 -1.9 1.5 -2.6 -1.8 -3.2 -1.6 -0.3 -4.3 -0.9 -6 -1.2 l-3 -0.6 0 6.6 0 6.6 7 0 c8.2 0 13.9 -2.3 15.8 -6.5 1.6 -3.6 1.5 -5 -0.8 -9.5 -5.1 -10.1 -23.5 -18.9 -39.2 -19 -4.7 0 -5.6 0.3 -5.2 1.5 0.4 1.1 0 1.5 -1.6 1.5 -3.7 0 -2.2 -4.3 2 -5.7 17.9 -6.1 51 11.5 51 27.1 0 9.6 -7.8 15.1 -21.2 15.1 -5.4 -0.1 -7.9 0.3 -8.2 1.2 -0.7 1.6 -1.8 1.7 -3.4 0.1z"/>
  <path d="M724 45.3 c0 -0.9 -1.8 -1.3 -5.3 -1.3 -2.9 0 -5.9 -0.6 -6.5 -1.2 -1 -1 -1.7 -1 -3.2 0 -2.1 1.3 -7.8 1.6 -10.4 0.6 -0.9 -0.3 -1.6 -1.4 -1.6 -2.3 0 -1 -0.7 -2.6 -1.5 -3.7 -2.6 -3.5 -1.9 -5.2 2.6 -5.6 4.7 -0.4 6.5 1.6 5.4 5.9 -0.4 1.8 -0.2 2.4 0.7 2.1 0.7 -0.3 1.3 -1.3 1.4 -2.4 0.3 -4.3 1.8 -5.9 5.9 -6 2.6 -0.1 4.4 0.4 5.2 1.5 1.6 2.1 1.7 5.1 0.1 5.1 -0.9 0 -0.9 0.3 0 1.2 1.5 1.5 2.3 0.7 3.1 -3.4 0.5 -2.3 1.3 -3.4 2.8 -3.6 2.6 -0.4 6.6 2.7 5.4 4.2 -0.5 0.6 -1.6 3.1 -2.4 5.6 -0.9 2.5 -1.6 3.9 -1.7 3.3z"/>
  <path d="M731.5 41.8 c0.4 -2.4 1.3 -5.8 2.1 -7.5 1.3 -3.2 1.4 -3.3 7.6 -3.3 4.4 0 5.9 0.3 4.8 1 -1.3 0.9 -1.3 1 0.1 1 2.2 0 4.2 9.9 2.3 11.7 -1.9 1.9 -3.3 1.6 -4.6 -1.2 -0.6 -1.4 -1.5 -2.5 -2 -2.5 -0.4 0 -0.7 -0.3 -0.7 -0.7 0.4 -2.7 -0.2 -4.2 -1.7 -3.6 -1.2 0.4 -1.2 0.8 -0.3 1.3 1.9 1.2 0.2 6 -2.1 6 -1.1 0 -2 0.5 -2 1 0 0.6 -0.9 1 -2.1 1 -1.9 0 -2 -0.4 -1.4 -4.2z"/>
  <path d="M299.9 38.9 c-3.3 -3.5 -6.4 -6.5 -6.9 -6.5 -0.6 -0.1 -1.5 -0.2 -2.2 -0.3 -0.9 -0.1 -0.9 -0.4 -0.1 -1.2 0.9 -0.9 0.5 -2.2 -1.7 -5.4 -1.5 -2.2 -3.5 -4.7 -4.4 -5.4 -0.9 -0.7 -1.3 -1.8 -0.9 -2.4 0.4 -0.6 0 -0.8 -1 -0.4 -1 0.3 -1.7 0.2 -1.7 -0.3 0 -0.6 2.7 -1 6 -1 3.3 0 6 0.4 6 1 0 0.5 -0.7 0.7 -1.7 0.3 -1.3 -0.5 -1.2 0.1 0.7 3.6 1.3 2.3 2.8 4 3.2 3.9 1.5 -0.5 5.1 -6.8 3.9 -6.8 -0.6 0 -1.1 -0.4 -1.1 -1 0 -0.5 2 -1 4.5 -1 2.5 0 4.5 0.3 4.4 0.8 0 0.4 -2.2 2.5 -4.7 4.8 -2.6 2.2 -4.8 4.6 -4.9 5.2 -0.2 0.7 1.9 4.2 4.5 7.9 6.4 9 6.4 9.1 5.1 9.9 -0.6 0.4 -3.6 -2 -7 -5.7z"/>
  <path d="M778.6 43.6 c0.7 -1.8 -2.1 -2.3 -3.1 -0.6 -0.3 0.6 -4.4 1 -9 1 l-8.4 0 -0.7 -4.7 c-1 -7 -0.1 -7.7 9.5 -8.1 5.6 -0.2 8.1 0.1 8.1 0.9 0 0.6 0.7 0.8 1.7 0.5 1 -0.4 1.4 -0.4 1.1 0 -0.4 0.3 0.2 1.4 1.4 2.3 1.7 1.4 2 2.4 1.4 5.4 -0.4 2 -1.1 3.9 -1.6 4.2 -0.6 0.3 -0.7 -0.1 -0.4 -0.9z m-5.1 -2.6 c0.3 -0.5 -0.1 -2 -0.9 -3.2 -0.9 -1.3 -1.6 -1.6 -1.6 -0.9 0 0.8 -0.7 1.1 -1.9 0.8 -1.6 -0.4 -5.1 2.2 -5.1 3.8 0 1 8.9 0.5 9.5 -0.5z"/>
  <path d="M363.8 37.3 c-7.5 -7.5 -9.3 -7.6 -8.6 -0.4 0.2 2.9 0 4.1 -0.9 4.1 -0.7 0 -1.3 0.5 -1.3 1 0 0.6 -0.7 1 -1.5 1 -1.2 0 -1.5 -2 -1.5 -11.9 0 -8.7 -0.4 -12.2 -1.3 -13 -0.8 -0.6 -1.7 -0.8 -2 -0.4 -0.4 0.3 -0.7 0.1 -0.7 -0.5 0 -1.6 13.3 -1.5 18 0.1 2.8 1 3.6 1.8 3.8 4.3 0.2 2 -0.4 3.6 -1.8 4.9 -1.1 1 -2 2.4 -2 3 0 0.7 2 4 4.5 7.4 2.5 3.4 4.5 6.3 4.5 6.6 0 1.9 -3.5 -0.5 -9.2 -6.2z m-2.8 -10.3 c3.2 -3.2 2.4 -6.1 -2.2 -7.9 -3.4 -1.3 -3.8 -0.7 -3.8 5.1 0 4.1 0.3 4.8 2 4.8 1.1 0 2.9 -0.9 4 -2z"/>
  <path d="M789.3 42.1 c-3.1 -2.6 -2.9 -6.5 0.3 -9 2.3 -1.8 4 -2.1 11.3 -2 5 0 7.8 0.4 6.7 0.8 -1.6 0.6 -1.7 0.8 -0.4 1.3 1.1 0.4 1.4 1.5 1.1 3.2 -0.5 2.4 -0.9 2.6 -6.5 2.6 -5.4 0 -5.8 0.1 -4.9 1.9 0.6 1 0.7 2.1 0.4 2.5 -1.3 1.2 -5.9 0.5 -8 -1.3z"/>
  <path d="M58.2 41.8 c-1.3 -1.3 -1.5 -11.7 -0.4 -15.3 1.4 -4.2 3 -2.5 3.7 3.8 1.1 10.3 -0.1 14.7 -3.3 11.5z"/>
  <path d="M102 41.5 c-1.4 -1.7 -0.7 -8.3 1.3 -11.7 0.9 -1.6 0.9 -2.2 0 -2.5 -2.4 -0.9 -1.3 -3.1 1.8 -3.7 6.3 -1.2 10.8 -0.7 11.9 1.4 0.9 1.7 0.6 2 -2.7 2.5 -6 1 -7.2 1.7 -3.8 2.4 4.4 0.9 3.9 3.5 -0.7 3.9 -2.6 0.2 -3.8 0.8 -3.8 1.8 0 1.2 1 1.5 4.1 1.2 5.4 -0.4 6.1 1.5 1.7 4.2 -3.9 2.4 -8.1 2.6 -9.8 0.5z"/>
  <path d="M236.4 34.3 c0.7 -11.1 -0.3 -16.9 -2.8 -16.5 -1.1 0.2 -1.5 -0.1 -1.1 -0.7 0.8 -1.4 11.9 -1.4 16.8 0 8.8 2.4 6.5 12 -3.5 14.4 -3.7 0.9 -3.5 -0.6 0.3 -2.7 2.5 -1.5 3 -2.3 2.7 -5 -0.2 -2.3 -1 -3.6 -2.7 -4.5 -1.4 -0.6 -2.9 -1 -3.3 -0.7 -0.4 0.3 -0.8 5.2 -0.8 11 0 10.9 -0.8 13.4 -4.5 13.4 -1.5 0 -1.6 -1 -1.1 -8.7z"/>
  <path d="M264 29.9 c0 -12.6 -0.1 -13.1 -2 -12.6 -1.1 0.3 -2 0.1 -2 -0.4 0 -0.5 3.2 -0.9 7 -0.9 4.1 0 7 0.4 7 1 0 0.6 -1 0.8 -2.2 0.5 l-2.3 -0.6 0.3 12.1 c0.3 10.3 0.1 12 -1.2 12 -0.9 0 -1.6 0.5 -1.6 1 0 0.6 -0.7 1 -1.5 1 -1.3 0 -1.5 -2.1 -1.5 -13.1z"/>
  <path d="M283 41.9 c0 -2 5.3 -7.7 6.7 -7.2 1.1 0.4 1 1 -0.3 3.2 -3.1 4.7 -6.4 6.8 -6.4 4z"/>
  <path d="M331 36.9 c-2.3 -5.9 -2.3 -6 -5.9 -5.7 -3.4 0.3 -3.7 0.6 -5 5.1 -1.3 4.2 -3.2 6 -4.4 4 -0.7 -1.2 6.8 -19.5 7.6 -18.7 0.9 0.9 0.9 -0.9 0.1 -3 -0.3 -0.9 -1 -1.3 -1.5 -1 -0.5 0.3 -0.9 0 -0.9 -0.5 0 -0.7 2.4 -1.1 6 -1.1 3.3 0 6 0.4 6 1 0 0.6 -0.7 1 -1.5 1 -0.8 0 -1.5 0.2 -1.5 0.5 0 0.3 1.8 5.2 4 11.1 3.4 9.1 3.8 10.8 2.6 12 -2.4 2.4 -3.3 1.6 -5.6 -4.7z m-3.1 -8.6 c0 -0.5 -0.7 -2.4 -1.4 -4.3 -1.3 -3.2 -1.4 -3.3 -2 -1.3 -0.4 1.3 -1.1 2.1 -1.5 1.8 -0.4 -0.3 -1.1 0.2 -1.4 1.1 -0.3 0.8 -0.2 1.2 0.4 0.9 0.6 -0.3 1 0.1 1 0.9 0 1 0.9 1.6 2.5 1.6 1.4 0 2.5 -0.3 2.4 -0.7z"/>
  <path d="M66.3 39.6 c-2.3 -2 -2.6 -2.8 -1.7 -4.3 0.6 -1 2.6 -2.1 4.5 -2.4 l3.4 -0.6 -3.2 -0.2 c-1.8 0 -3.3 -0.5 -3.3 -1.1 0 -0.5 -0.7 -0.7 -1.5 -0.4 -2.3 0.9 -1.9 -3 0.6 -5.2 1.7 -1.5 3.6 -1.9 9.2 -1.9 4.5 0 7.2 0.4 7.4 1.2 0.3 0.7 -0.3 0.9 -1.6 0.6 -1.2 -0.3 -2.1 -0.1 -2.1 0.6 0 0.6 -1.7 1.1 -3.7 1.2 -2.1 0 -4.7 0.4 -5.8 0.8 -1.5 0.6 -0.4 1 4 1.5 6.9 0.9 9.5 2.7 9.5 6.7 0 5.9 -10.2 8.2 -15.7 3.5z m4.2 -3.5 c-4.4 -2 -5 -1.9 -4.2 0.4 0.4 1 1.9 1.5 4.4 1.5 l3.8 -0.1 -4 -1.8z m7.4 -0.5 c0.9 -1.1 0.8 -1.5 -0.5 -2 -2.6 -1 -4 -0.6 -2 0.5 1.5 0.9 1.6 1.3 0.5 2 -0.8 0.5 -0.9 0.9 -0.3 0.9 0.6 0 1.7 -0.6 2.3 -1.4z"/>
  <path d="M83.6 39.7 c-0.8 -3.4 0.9 -12.6 2.7 -14.4 1.4 -1.4 1.9 -1 5.2 3.6 2.1 2.9 3.9 5 4.2 4.8 0.2 -0.3 -0.3 -3.3 -1.2 -6.7 -0.9 -3.4 -1.4 -6.5 -1.1 -6.8 1.1 -1 4.5 3 5.7 6.5 1.2 3.9 0.7 11.9 -0.9 13.5 -1.8 1.8 -4.8 -0.1 -7.3 -4.5 l-2.4 -4.2 -0.3 3 c-0.5 5.4 -1.2 7.5 -2.6 7.5 -0.8 0 -1.6 -1 -2 -2.3z"/>
  <path d="M730.4 28.6 c-1 -2.6 1 -10.1 2.9 -10.4 1 -0.2 1.7 0.3 1.7 1.2 0 0.9 0.6 1.6 1.4 1.6 1.5 0 3.1 6.3 2.1 8 -1 1.6 -7.5 1.2 -8.1 -0.4z"/>
  <path d="M746.4 28.3 c0.1 -1 1 -3.5 2 -5.5 1.5 -3.4 1.8 -3.7 4.2 -2.8 1.4 0.6 5.4 1 9 1 3.6 0 6.4 0.4 6.4 1 0 0.6 0.6 1 1.4 1 0.8 0 1.6 0.7 2 1.5 0.3 0.8 0.1 1.5 -0.4 1.5 -0.6 0 -1 0.7 -1 1.6 0 1.1 0.6 1.5 2 1.1 1.1 -0.3 1.8 -0.1 1.4 0.4 -0.3 0.5 -2.3 0.9 -4.5 0.9 -2.2 0 -3.8 -0.4 -3.5 -0.9 0.6 -1 -1.6 -6.1 -2.6 -6.1 -0.5 0 -0.8 0.6 -0.8 1.4 0 1.1 -0.8 1.2 -3.7 0.5 -4.8 -1.1 -6.2 -1.1 -4.5 0 0.8 0.5 1.2 1.7 1 2.7 -0.2 1.4 -1.3 2 -4.6 2.2 -3.6 0.3 -4.2 0.1 -3.8 -1.5z"/>
  <path d="M775.6 29.1 c-0.3 -0.5 -0.1 -2.3 0.5 -4.1 1.1 -2.9 1.5 -3.1 4.2 -2.6 3.6 0.7 3.3 0.3 4 4.4 l0.7 3.2 -4.5 0 c-2.4 0 -4.6 -0.4 -4.9 -0.9z"/>
  <path d="M792.3 29.3 c-0.7 -0.2 -1.3 -1.1 -1.3 -1.9 0 -0.8 -0.4 -1.4 -1 -1.4 -0.5 0 -1 -0.7 -1 -1.6 0 -1.4 1.3 -1.5 8.9 -1.2 4.9 0.1 9.1 0.5 9.4 0.8 0.2 0.3 0.7 1.7 1.1 3.3 l0.6 2.7 -7.7 -0.1 c-4.3 0 -8.4 -0.3 -9 -0.6z"/>
  <path d="M693 27.8 c0 -0.7 0.3 -2.3 0.6 -3.5 0.6 -2.2 1.1 -2.3 10 -2.3 7.5 0 9.6 -0.3 10 -1.5 0.6 -1.6 3.3 -1.9 7.2 -0.9 1.5 0.4 2.2 1.4 2.2 2.9 0 4.2 -1 5.5 -3.6 4.9 -1.5 -0.4 -2.4 -0.2 -2.4 0.5 0 0.7 -3.9 1.1 -12 1.1 -8.9 0 -12 -0.3 -12 -1.2z"/>
  <path d="M949 19.5 c0 -10.4 1.1 -10.9 6.6 -2.7 l3.9 5.7 0.3 -5.7 c0.5 -9 2.2 -6.8 2.2 2.8 0 10.3 -0.8 10.5 -6.5 1.7 -2.2 -3.4 -4.3 -6.2 -4.7 -6.2 -0.5 -0.1 -0.7 2.7 -0.6 6.2 l0.1 6.2 0.7 -5 0.7 -5 0.1 5.3 c0.2 4 -0.1 5.2 -1.3 5.2 -1.2 0 -1.5 -1.6 -1.5 -8.5z"/>
  <path d="M987 19.5 c0 -6.9 0.3 -8.5 1.5 -8.5 0.9 0 1.5 1 1.5 2.6 0 1.4 -0.4 2.3 -1 1.9 -0.6 -0.4 -1 1.6 -1 5.4 0 3.8 0.4 6.1 1.3 6.4 0.7 0.3 0.5 0.6 -0.5 0.6 -1.6 0.1 -1.8 -0.9 -1.8 -8.4z"/>
  <path d="M994.8 26.3 c-0.9 -1 -1.3 -2.4 -1 -3.2 0.3 -0.8 0 -1.1 -0.7 -0.7 -2 1.3 -1.2 -6 1 -8.8 2.6 -3.3 6.8 -3.4 9.7 -0.3 1.2 1.3 2.2 2.6 2.2 3 0 1.3 -3.1 0.7 -3.6 -0.7 -1.7 -4.5 -7.4 -1.4 -7.4 3.9 0 6 6.2 8.4 7.6 2.9 0.7 -2.8 3.4 -3.3 3.4 -0.6 0 5 -8 8.2 -11.2 4.5z"/>
  <path d="M1008 19.5 c0 -8.1 0.1 -8.5 1.9 -7.6 1 0.6 3.2 3.1 4.7 5.6 3.6 5.6 5.4 5.8 5.3 0.8 l-0.2 -3.8 -0.7 3.5 c-0.7 3.3 -0.7 3.1 -0.9 -1.7 -0.1 -4.1 0.2 -5.3 1.4 -5.3 1.2 0 1.5 1.6 1.6 8.3 l0.1 8.2 1.5 -4.3 c1.1 -3.2 1.8 -4.1 2.6 -3.3 1.9 1.9 4.2 1.3 4.2 -1.2 0 -1.7 -0.5 -2.3 -1.7 -1.9 -1 0.2 -1.5 1 -1.2 2 0.5 1.6 0.5 1.6 -0.5 0.1 -1.3 -2 0.4 -7.9 2.3 -7.9 0.7 0 1.8 1.7 2.4 3.8 4.4 14 4.2 13.2 2.6 13.2 -0.8 0 -1.9 -1.1 -2.4 -2.5 -1.1 -2.8 -4.7 -3.4 -5.6 -1 -0.4 0.8 -1 1.2 -1.5 0.9 -0.5 -0.3 -0.6 0.2 -0.3 1 0.5 1.2 -0.1 1.6 -2.4 1.6 -2.4 0 -3.5 -0.9 -6.8 -5.7 l-3.9 -5.8 -0.3 5.8 c-0.5 8.9 -2.2 6.7 -2.2 -2.8z"/>
  <path d="M1036.6 26.5 c-0.3 -0.9 -0.6 -4.8 -0.6 -8.6 0 -5.5 0.3 -6.9 1.5 -6.9 1.2 0 1.5 1.5 1.5 7.3 0 7.5 -1.1 11.4 -2.4 8.2z"/>
  <path d="M970.7 23.7 c-1.6 -1.6 -1.6 -1.9 -0.2 -3.3 1.2 -1.2 1.2 -1.8 0.2 -2.9 -1 -1.1 -1.3 -1 -2.1 0.6 -0.5 1 -1.4 1.9 -2 1.9 -0.6 0 -0.4 0.5 0.4 1 1.3 0.9 1.2 1.2 -0.4 2.5 -1.1 0.8 -2.1 1.3 -2.3 1.1 -0.7 -0.7 4.2 -13 5.3 -13.3 0.7 -0.2 2.2 2.7 3.7 6.9 2.1 6.4 2.2 7.4 0.8 7.4 -0.9 0 -2.4 -0.9 -3.4 -1.9z"/>
  <path d="M978.9 19.6 c-0.3 -5.1 -0.1 -7 0.9 -7.4 2.2 -0.8 2.7 1 2.1 7.3 -0.3 3.3 -0.7 4.9 -0.9 3.5 -0.2 -2.4 -0.3 -2.4 -1 0.5 -0.5 2.4 -0.8 1.6 -1.1 -3.9z"/>
  <path d="M53.5 16.6 c-0.8 -5.1 0 -6.8 4.6 -9.2 5.6 -2.8 12.9 -0.5 12.9 4.1 0 3.1 -6.3 8.5 -9.8 8.5 -1.5 0 -3.7 0.3 -4.9 0.6 -1.9 0.5 -2.2 0.1 -2.8 -4z m12.3 -1.6 c3.2 -2 3.8 -4 1.4 -4.8 -0.6 -0.2 -2.8 1.3 -4.9 3.2 -3.2 3 -3.5 3.5 -1.8 3.6 1.1 0 3.5 -0.9 5.3 -2z m-7.8 -3 c0.6 -1.1 0.9 -2 0.7 -2 -0.2 0 -1.2 0.9 -2.2 2 -1 1.1 -1.3 2 -0.7 2 0.6 0 1.6 -0.9 2.2 -2z"/>
 </g>
</svg>